<?xml version="1.0" encoding="UTF-8"?>
<!DOCTYPE svg PUBLIC "-//W3C//DTD SVG 1.1//EN" "http://www.w3.org/Graphics/SVG/1.1/DTD/svg11.dtd">
<!-- Creator: CorelDRAW -->
<svg xmlns="http://www.w3.org/2000/svg" xml:space="preserve" width="6.82666in" height="6.82666in" style="shape-rendering:geometricPrecision; text-rendering:geometricPrecision; image-rendering:optimizeQuality; fill-rule:evenodd; clip-rule:evenodd"
viewBox="0 0 6.82666 6.82666"
 xmlns:xlink="http://www.w3.org/1999/xlink">
 <defs>
  <style type="text/css">
   <![CDATA[
    .fil1 {fill:none}
    .fil0 {fill:#FFF;fill-rule:nonzero}
   ]]>
  </style>
 </defs>
 <g id="Layer_x0020_1">
  <metadata id="CorelCorpID_0Corel-Layer"/>
  <path class="fil0" d="M5.25294 4.79713c0.126846,0 0.241705,0.0514252 0.324846,0.134567 0.0831378,0.0831378 0.134571,0.198 0.134571,0.324846 0,0.126846 -0.0514252,0.241709 -0.134567,0.32485 -0.0831417,0.0831417 -0.198004,0.134567 -0.32485,0.134567 -0.126846,0 -0.241709,-0.0514331 -0.324846,-0.134571 -0.0831417,-0.0831417 -0.134567,-0.198 -0.134567,-0.324846 0,-0.126843 0.0514291,-0.241705 0.134567,-0.324846 0.0831417,-0.0831378 0.198004,-0.134567 0.324846,-0.134567zm0.174012 0.285402c-0.0445197,-0.0445197 -0.106047,-0.072063 -0.174012,-0.072063 -0.0679606,0 -0.129488,0.0275433 -0.174012,0.072063 -0.0445197,0.0445236 -0.072063,0.106051 -0.072063,0.174012 0,0.0679646 0.0275433,0.129492 0.072063,0.174012 0.0445236,0.0445236 0.106047,0.0720669 0.174012,0.0720669 0.0679646,0 0.129496,-0.0275433 0.174016,-0.072063 0.0445197,-0.0445197 0.072063,-0.106051 0.072063,-0.174016 0,-0.0679646 -0.0275433,-0.129488 -0.0720669,-0.174012z"/>
  <polygon class="fil0" points="5.35962,4.63923 5.35962,4.9038 5.14628,4.9038 5.14628,4.63923 "/>
  <polygon class="fil0" points="5.35962,5.60211 5.35962,5.86667 5.14628,5.86667 5.14628,5.60211 "/>
  <polygon class="fil0" points="5.76233,4.89441 5.57526,5.08148 5.42442,4.93064 5.6115,4.74357 "/>
  <polygon class="fil0" points="5.08148,5.57526 4.89441,5.76233 4.74357,5.6115 4.93064,5.42442 "/>
  <polygon class="fil0" points="5.86667,5.35962 5.60211,5.35962 5.60211,5.14628 5.86667,5.14628 "/>
  <polygon class="fil0" points="4.9038,5.35962 4.63923,5.35962 4.63923,5.14628 4.9038,5.14628 "/>
  <polygon class="fil0" points="5.6115,5.76233 5.42442,5.57526 5.57526,5.42442 5.76233,5.6115 "/>
  <polygon class="fil0" points="4.93064,5.08148 4.74357,4.89441 4.89441,4.74357 5.08148,4.93064 "/>
  <path class="fil0" d="M4.32802 4.45243c-0.0455709,-0.123736 -0.16378,-0.247016 -0.309417,-0.358142 -0.313571,-0.239264 -0.73965,-0.410709 -0.898504,-0.435976 -0.175768,-0.0279449 -0.178008,-0.354673 -0.178016,-0.355606l-0.000515748 -0.0448976 0.0313504 -0.0313543c0.000661417,-0.000661417 0.23011,-0.227815 0.279787,-0.531224l0.0146693 -0.0895866 0.0903307 0c6.29921e-005,0 0.00376772,-0.00432677 0.00972441,-0.0113425 0.0144409,-0.0170039 0.0267953,-0.0415157 0.0359213,-0.0699252 0.00985827,-0.0306732 0.0153898,-0.0652087 0.0153898,-0.0997205 0,-0.0493268 -0.0112126,-0.0944055 -0.0378504,-0.117028l-0.0399173 -0.0339016 0.00241732 -0.0519331c0.000755906,-0.0162283 0.00266535,-0.0339646 0.00508661,-0.0564764 0.0052874,-0.0491929 0.0133189,-0.123843 0.0133189,-0.211858 0,-0.270831 -0.0865709,-0.665516 -0.658331,-0.665516 -0.571752,0 -0.658315,0.394685 -0.658315,0.665516 0,0.088 0.00802362,0.162642 0.013311,0.211827 0.00242126,0.0225276 0.00433071,0.0402795 0.00508661,0.0565079l0.00242126 0.051937 -0.0399213 0.0338976c-0.0266378,0.022622 -0.0378504,0.0677047 -0.0378504,0.117028 0,0.0345079 0.0055315,0.0690433 0.0153898,0.0997165 0.00912992,0.0284094 0.0214803,0.0529213 0.0359213,0.0699252 0.00596063,0.00701575 0.00966929,0.0113465 0.00973228,0.0113465l0.0903346 0 0.0146654 0.0895866c0.0496772,0.303409 0.279118,0.530563 0.27978,0.531224l0.0313543 0.0313543 -0.000519685 0.0448976c-7.87402e-006,0.000933071 -0.00224409,0.327661 -0.178012,0.355606 -0.158846,0.0252677 -0.584937,0.196713 -0.898512,0.43598 -0.145638,0.111126 -0.263843,0.234402 -0.309413,0.358138l3.2491 0zm-0.180252 -0.527307c0.235445,0.17965 0.413823,0.397587 0.413823,0.633976l0 0.106669 -0.106669 0 -3.50291 0 -0.106669 0 0 -0.106669c0,-0.23639 0.178378,-0.454323 0.413819,-0.633972 0.340961,-0.260161 0.814953,-0.448276 0.994346,-0.476815 0.00183858,-0.000291339 0.000862205,-0.0597323 -8.66142e-005,-0.103 -0.0676772,-0.0762323 -0.232185,-0.282386 -0.295535,-0.54811 -0.030063,-0.0150866 -0.0571614,-0.0374685 -0.0808858,-0.0654016 -0.032374,-0.038122 -0.0583937,-0.0878937 -0.0759213,-0.142429 -0.0167992,-0.0522717 -0.0262244,-0.109378 -0.0262244,-0.164717 0,-0.0855827 0.0218228,-0.170457 0.0720512,-0.235756l-0.00011811 -0.00111024c-0.00595276,-0.0553543 -0.0149803,-0.139358 -0.0149803,-0.234331 0,-0.357646 0.114618,-0.878854 0.871654,-0.878854 0.757047,0 0.871669,0.521209 0.871669,0.878854 0,0.095 -0.00903543,0.179004 -0.0149882,0.234362l-0.000114173 0.00108661c0.0502244,0.0652992 0.0720472,0.150165 0.0720472,0.235748 0,0.0553425 -0.0094252,0.112449 -0.0262244,0.16472 -0.0175197,0.0545354 -0.0435472,0.104307 -0.0759213,0.142429 -0.0237165,0.0279252 -0.0508189,0.0503031 -0.080874,0.0653898 -0.0633425,0.265732 -0.227866,0.471894 -0.295547,0.548126 -0.000948819,0.0432717 -0.00192126,0.102701 -8.26772e-005,0.102992 0.179406,0.0285394 0.653386,0.216654 0.994339,0.476811z"/>
 </g>
 <rect class="fil1" width="6.82666" height="6.82666"/>
</svg>
